{"title":"Entourage.2015.HC.WEBRIP.X264.AC3.VAIN","uid":12192592,"size":1173209325,"categoryP":"video","categoryS":"movies","magnet":"?xt=urn:btih:0fe78988e5b1b8922341b4e27af47efe921f908b&amp;dn=Entourage.2015.HC.WEBRIP.X264.AC3.VAIN&amp;tr=udp%3A%2F%2Ftracker.openbittorrent.com%3A80&amp;tr=udp%3A%2F%2Fopen.demonii.com%3A1337&amp;tr=udp%3A%2F%2Ftracker.coppersurfer.tk%3A6969&amp;tr=udp%3A%2F%2Fexodus.desync.com%3A6969","seeders":1,"leechers":0,"uploader":"TvTeam","files":4,"time":1438688062,"description":"------------------------------------------------------------------------\n\n &lt;a href=&quot; https://www.torrenting.com&quot; rel=&quot;nofollow&quot; target=&quot;_NEW&quot;&gt; https://www.torrenting.com&lt;/a&gt;\n\nSign up is OPEN - for time being. Come and have fun\n\n.......................................................................................................................[img]http://i.imgur.com/CBdIxdX.jpg[/img]\n\n[img]http://i.imgur.com/567WCOq.png[/img]\n\nIMDB: http://www.imdb.com/title/tt1674771/\n\nMovie star Vincent Chase, together with his boys Eric, Turtle, and Johnny, are back - and back in business with super agent-turned-studio head Ari Gold on a risky project that will serve as Vince's directorial debut.\n\n\n\n\nEntourage.2015.HC.WEBRIP.X264.AC3.VAIN.mkv\nFormat                      : Matroska\nFormat version              : Version 2\nFile size                   : 1.07 GiB\nDuration                    : 1h 40mn\nOverall bit rate            : 1 524 Kbps\nEncoded date                : UTC 2015-07-30 21:22:59\nWriting application         : mkvmerge v5.7.0 ('The Whirlwind') built on Jul  8 2012 20:08:51\nWriting library             : libebml v1.2.3 + libmatroska v1.3.0\n\nVideo\nID                          : 1\nFormat                      : AVC\nFormat/Info                 : Advanced Video Codec\nFormat profile              : &lt;a class=&quot;__cf_email__&quot; href=&quot;/cdn-cgi/l/email-protection&quot; data-cfemail=&quot;fdb5949a95bdb1ced3cc&quot;&gt;[email&amp;#160;protected]&lt;/a&gt;&lt;script data-cfhash='f9e31' type=&quot;text/javascript&quot;&gt;\n/* &lt;![CDATA[ */!function(){try{var t=&quot;currentScript&quot;in document?document.currentScript:function(){for(var t=document.getElementsByTagName(&quot;script&quot;),e=t.length;e--;)if(t[e].getAttribute(&quot;data-cfhash&quot;))return t[e]}();if(t&amp;&amp;t.previousSibling){var e,r,n,i,c=t.previousSibling,a=c.getAttribute(&quot;data-cfemail&quot;);if(a){for(e=&quot;&quot;,r=parseInt(a.substr(0,2),16),n=2;a.length-n;n+=2)i=parseInt(a.substr(n,2),16)^r,e+=String.fromCharCode(i);e=document.createTextNode(e),c.parentNode.replaceChild(e,c)}t.parentNode.removeChild(t);}}catch(u){}}()/* ]]&gt; */&lt;/script&gt;\nFormat settings, CABAC      : Yes\nFormat settings, ReFrames   : 6 frames\nMuxing mode                 : Header stripping\nCodec ID                    : V_MPEG4/ISO/AVC\nDuration                    : 1h 40mn\nBit rate                    : 1 299 Kbps\nWidth                       : 1 280 pixels\nHeight                      : 544 pixels\nDisplay aspect ratio        : 2.35:1\nFrame rate mode             : Constant\nFrame rate                  : 23.976 fps\nColor space                 : YUV\nChroma subsampling          : 4:2:0\nBit depth                   : 8 bits\nScan type                   : Progressive\nBits/(Pixel*Frame)          : 0.078\nStream size                 : 910 MiB (83%)\nWriting library             : x264 core 142 r2431 ac76440\nEncoding settings           : cabac=1 / ref=6 / deblock=1:-1:-1 / analyse=0x3:0x113 / me=umh / subme=10 / psy=1 / psy_rd=1.00:0.00 / mixed_ref=1 / me_range=64 / chroma_me=1 / trellis=2 / 8x8dct=1 / cqm=0 / deadzone=21,11 / fast_pskip=0 / chroma_qp_offset=-2 / threads=6 / lookahead_threads=1 / sliced_threads=0 / nr=0 / decimate=0 / interlaced=0 / bluray_compat=0 / constrained_intra=0 / bframes=6 / b_pyramid=0 / b_adapt=2 / b_bias=0 / direct=3 / weightb=1 / open_gop=0 / weightp=2 / keyint=240 / keyint_min=23 / scenecut=40 / intra_refresh=0 / rc_lookahead=40 / rc=2pass / mbtree=1 / bitrate=1299 / ratetol=1.0 / qcomp=0.60 / qpmin=10 / qpmax=51 / qpstep=4 / cplxblur=20.0 / qblur=0.5 / vbv_maxrate=16800 / vbv_bufsize=16800 / nal_hrd=none / filler=0 / ip_ratio=1.40 / aq=1:1.00\nDefault                     : Yes\nForced                      : No\n\nAudio\nID                          : 2\nFormat                      : AC-3\nFormat/Info                 : Audio Coding 3\nMode extension              : CM (complete main)\nFormat settings, Endianness : Big\nMuxing mode                 : Header stripping\nCodec ID                    : A_AC3\nDuration                    : 1h 40mn\nBit rate mode               : Constant\nBit rate                    : 224 Kbps\nChannel(s)                  : 2 channels\nChannel positions           : Front: L R\nSampling rate               : 48.0 KHz\nCompression mode            : Lossy\nStream size                 : 160 MiB (15%)\nDefault                     : Yes\nForced                      : No\n\n\nSCREENS:\n\n[img]http://i.imgur.com/DyqRXch.jpg[/img]\n[img]http://i.imgur.com/yVen52k.jpg[/img]\n[img]http://i.imgur.com/o6IuGAw.jpg[/img]\n\n\nHive-CM8 | Rx | REFiLL | JEDI | DREAMER n' LADY | 26k |Unevano | IMIGiNE | TOFFEE\nGH0ST | ViSiON | Sugarb | DeviAntsRUs | STARLETS | GUSH | spangy | jamie111 | TED |\n\nAnd all the release grps that don't hide behind new names, or live in the past n glory of old has been that neva were release grps","torrent":{"xt":"urn:btih:0fe78988e5b1b8922341b4e27af47efe921f908b","amp;dn":"Entourage.2015.HC.WEBRIP.X264.AC3.VAIN","amp;tr":["udp%3A%2F%2Ftracker.openbittorrent.com%3A80","udp%3A%2F%2Fopen.demonii.com%3A1337","udp%3A%2F%2Ftracker.coppersurfer.tk%3A6969","udp%3A%2F%2Fexodus.desync.com%3A6969"],"infoHash":"0fe78988e5b1b8922341b4e27af47efe921f908b","infoHashBuffer":{"type":"Buffer","data":[15,231,137,136,229,177,184,146,35,65,180,226,122,244,126,254,146,31,144,139]},"announce":[],"urlList":[]}}